<?xml version="1.0" standalone="no"?>
<!DOCTYPE svg PUBLIC "-//W3C//DTD SVG 20010904//EN"
 "http://www.w3.org/TR/2001/REC-SVG-20010904/DTD/svg10.dtd">
<svg version="1.0" xmlns="http://www.w3.org/2000/svg"
 width="935.000000pt" height="935.000000pt" viewBox="0 0 935.000000 935.000000"
 preserveAspectRatio="xMidYMid meet">
<metadata>
Created by potrace 1.14, written by Peter Selinger 2001-2017
</metadata>
<g transform="translate(0.000000,935.000000) scale(0.100000,-0.100000)"
fill="#000000" stroke="none">
<path d="M4418 9345 c-1 -1 -50 -6 -108 -10 -58 -3 -118 -8 -135 -11 -16 -2
-46 -6 -65 -8 -126 -16 -213 -30 -350 -56 -79 -15 -89 -17 -145 -31 -884 -217
-1619 -625 -2239 -1244 -100 -100 -145 -147 -241 -256 -152 -171 -375 -485
-517 -727 -50 -85 -235 -465 -276 -567 -112 -277 -229 -681 -267 -925 -4 -25
-9 -54 -11 -65 -10 -52 -18 -108 -39 -277 -27 -222 -27 -781 0 -982 2 -17 9
-71 15 -121 23 -180 86 -502 120 -610 5 -16 21 -70 36 -120 121 -421 345 -893
607 -1280 213 -314 484 -624 756 -865 41 -36 79 -70 85 -75 9 -9 142 -116 196
-159 8 -6 31 -22 50 -36 19 -13 37 -27 40 -30 3 -4 66 -47 140 -97 433 -289
923 -511 1409 -638 114 -30 348 -81 411 -90 25 -3 56 -8 70 -10 200 -36 450
-52 765 -49 160 2 306 5 325 8 19 2 64 7 100 10 217 20 540 80 765 143 50 14
95 26 100 27 6 1 15 4 20 7 6 4 24 9 40 13 51 12 299 102 390 141 17 7 55 23
85 36 227 96 622 318 806 454 23 16 55 39 70 50 184 132 372 294 560 482 140
140 267 284 378 428 43 55 84 108 91 117 8 9 49 70 93 135 196 293 339 561
452 843 23 58 46 114 51 125 5 11 36 101 68 200 64 195 143 513 165 660 7 47
18 118 21 135 2 8 6 47 10 85 4 39 9 78 11 88 26 144 25 735 -1 967 -3 19 -7
58 -9 85 -3 28 -7 59 -10 70 -2 11 -7 43 -10 70 -4 28 -8 61 -11 75 -3 14 -7
39 -10 55 -19 112 -72 337 -110 465 -76 258 -174 509 -289 745 -103 209 -171
328 -295 514 -53 80 -100 152 -106 161 -17 26 -169 222 -215 275 -224 262
-426 459 -661 645 -63 50 -121 97 -129 104 -9 6 -38 27 -65 46 -28 19 -54 38
-60 42 -97 77 -355 230 -577 343 -289 147 -709 302 -978 360 -8 2 -53 12 -100
23 -47 11 -152 32 -235 45 -149 26 -189 31 -295 42 -30 3 -75 8 -100 11 -50 5
-636 14 -642 9z"/>
</g>
</svg>
